<?xml version="1.0" encoding="utf-8"?>
<!-- Generator: Adobe Illustrator 21.1.0, SVG Export Plug-In . SVG Version: 6.00 Build 0)  -->
<svg version="1.1" id="katman_1" xmlns="http://www.w3.org/2000/svg" xmlns:xlink="http://www.w3.org/1999/xlink" x="0px" y="0px"
	 viewBox="0 0 103.8 157.9" style="enable-background:new 0 0 103.8 157.9;" xml:space="preserve">
<style type="text/css">
	.st0{fill:#82BC00;}
	.st1{fill:none;stroke:#82BC00;stroke-width:2.236;stroke-linecap:round;stroke-linejoin:bevel;}
	.st2{fill:#FFFFFF;}
</style>
<path class="st0" d="M102.7,136.4v3.4c0,9.3-7.6,16.9-16.9,16.9H18c-9.3,0-16.9-7.6-16.9-16.9V18C1.1,8.7,8.7,1.1,18,1.1h67.7
	c9.3,0,16.9,7.6,16.9,16.9V136.4"/>
<path class="st1" d="M102.7,136.4v3.4c0,9.3-7.6,16.9-16.9,16.9H18c-9.3,0-16.9-7.6-16.9-16.9V18C1.1,8.7,8.7,1.1,18,1.1h67.7
	c9.3,0,16.9,7.6,16.9,16.9V136.4z"/>
<path class="st2" d="M91.2,7.4C58.2,22.9,46.9,35,34.3,47.9c-2.5-3.1-6-5.4-9.8-7.1c-4.2-1.9-8.7-3.3-11.7-3.8c0,0,0.4,0.5,0.4,0.5
	c5.4,6.5,16,17.5,22.5,32.6c0,0,0.1,0.2,0.1,0.2c15.9-30.6,28.6-41.7,34-46.4C75.3,18.4,90.4,8,90.4,8L91.2,7.4"/>
<path class="st2" d="M9.6,73.8h13.2c5.2,0,10,1.8,10,7.6c0,3.3-2.2,6.3-5.4,7v0.1c4,0.5,6.6,3.5,6.6,7.6c0,3-1,8.8-11.1,8.8H9.6
	V73.8 M12.6,87.4h10.2c4.7,0,7-2.3,7-5.3c0-3.9-2.4-5.8-7-5.8H12.6V87.4z M12.6,102.4h10.2c4.4,0,8.2-1.4,8.2-6.4c0-4-3-6-8.2-6
	H12.6V102.4z"/>
<path class="st2" d="M38.6,73.8h14.2c5.1,0,9.5,2.5,9.5,8.1c0,3.9-2,7.1-6.1,7.9v0.1c4.1,0.5,5.2,3.3,5.4,7c0.1,2.1,0.1,6.4,1.4,8
	h-3.3c-0.7-1.2-0.7-3.5-0.8-4.8c-0.3-4.4-0.6-9.2-6.2-9H41.6v13.8h-3V73.8 M41.6,88.5h11.1c3.6,0,6.7-2.3,6.7-6.1
	c0-3.8-2.3-6.2-6.7-6.2H41.6V88.5z"/>
<path class="st2" d="M90.4,83.2c-1-4.8-5-7.5-9.5-7.5c-8.2,0-11.7,6.9-11.7,13.7c0,6.8,3.5,13.7,11.7,13.7c5.8,0,9.4-4.4,10-10h3
	c-0.8,7.6-5.7,12.5-12.9,12.5c-9.8,0-14.7-7.7-14.7-16.2c0-8.5,4.9-16.2,14.7-16.2c5.9,0,11.7,3.5,12.5,10.1H90.4"/>
<path class="st2" d="M14.3,145.1c0-1.6-0.3-2.3-1.3-2.3c-1.1,0-1.4,1.1-1.4,4.2c0,3.3,0.5,3.9,1.4,3.9c0.8,0,1.4-0.4,1.4-2.8h2.2
	c0,2.4-0.6,4.4-3.5,4.4c-3.3,0-3.7-2.4-3.7-5.7s0.4-5.7,3.7-5.7c3.2,0,3.4,2.3,3.4,3.9H14.3"/>
<polyline class="st2" points="24,141.3 24,143.2 20.1,143.2 20.1,145.7 23.8,145.7 23.8,147.6 20.1,147.6 20.1,150.5 24.2,150.5 
	24.2,152.3 17.9,152.3 17.9,141.3 24,141.3 "/>
<path class="st2" d="M25.3,141.3h4.1c1.8,0,2.9,1,2.9,2.8c0,1.5-0.6,2.4-1.8,2.7v0c1.5,0.2,1.7,1,1.8,3.4c0,1.2,0.1,1.8,0.5,2v0.1
	h-2.4c-0.2-0.3-0.3-0.7-0.3-1.1l-0.1-2.1c0-0.9-0.4-1.4-1.3-1.4h-1.2v4.6h-2.2V141.3 M27.5,146.1h0.9c1.1,0,1.7-0.5,1.7-1.6
	c0-1-0.5-1.5-1.5-1.5h-1V146.1z"/>
<polyline class="st2" points="40,141.3 40,143.2 37.6,143.2 37.6,152.3 35.4,152.3 35.4,143.2 33,143.2 33,141.3 40,141.3 "/>
<rect x="41" y="141.3" class="st2" width="2.2" height="11"/>
<polyline class="st2" points="44.9,141.3 51,141.3 51,143.2 47.1,143.2 47.1,145.7 50.8,145.7 50.8,147.6 47.1,147.6 47.1,152.3 
	44.9,152.3 44.9,141.3 "/>
<rect x="52.1" y="141.3" class="st2" width="2.2" height="11"/>
<path class="st2" d="M60.7,145.1c0-1.6-0.3-2.3-1.3-2.3c-1.1,0-1.4,1.1-1.4,4.2c0,3.3,0.5,3.9,1.4,3.9c0.8,0,1.4-0.4,1.4-2.8H63
	c0,2.4-0.6,4.4-3.5,4.4c-3.3,0-3.7-2.4-3.7-5.7s0.4-5.7,3.7-5.7c3.2,0,3.4,2.3,3.4,3.9H60.7"/>
<path class="st2" d="M66.1,141.3h2.7l2.9,11h-2.3l-0.5-2.3H66l-0.5,2.3h-2.3L66.1,141.3 M66.4,148.2h2.2l-1.1-4.9h0L66.4,148.2z"/>
<polyline class="st2" points="78.1,141.3 78.1,143.2 75.7,143.2 75.7,152.3 73.5,152.3 73.5,143.2 71.1,143.2 71.1,141.3 
	78.1,141.3 "/>
<polyline class="st2" points="85.2,141.3 85.2,143.2 81.3,143.2 81.3,145.7 85,145.7 85,147.6 81.3,147.6 81.3,150.5 85.3,150.5 
	85.3,152.3 79.1,152.3 79.1,141.3 85.2,141.3 "/>
<path class="st2" d="M86.6,141.3h3.6c3.1,0,3.6,2.1,3.6,5.3c0,3.9-0.8,5.6-3.8,5.6h-3.5V141.3 M88.8,150.7h1c1.5,0,1.8-1,1.8-4
	c0-2.5-0.2-3.8-1.9-3.8h-0.9V150.7z"/>
<polyline class="st2" points="9.5,108.7 25.9,108.7 25.9,113.6 15.4,113.6 15.4,120.5 25.2,120.5 25.2,125.3 15.4,125.3 15.4,138 
	9.5,138 9.5,108.7 "/>
<path class="st2" d="M37.8,108.1c8.9,0,10,6.3,10,15.2c0,8.9-1.1,15.2-10,15.2c-8.9,0-10-6.3-10-15.2
	C27.9,114.5,29,108.1,37.8,108.1 M37.8,134.3c3.5,0,4.1-3,4.1-10.9c0-7.8-0.6-10.9-4.1-10.9c-3.5,0-4.1,3-4.1,10.9
	C33.8,131.3,34.3,134.3,37.8,134.3z"/>
<path class="st2" d="M60.7,108.1c8.9,0,10,6.3,10,15.2c0,8.9-1.1,15.2-10,15.2c-8.9,0-10-6.3-10-15.2
	C50.7,114.5,51.8,108.1,60.7,108.1 M60.7,134.3c3.5,0,4.1-3,4.1-10.9c0-7.8-0.6-10.9-4.1-10.9c-3.5,0-4.1,3-4.1,10.9
	C56.6,131.3,57.2,134.3,60.7,134.3z"/>
<path class="st2" d="M74.4,108.7h9.7c8.2,0,9.7,5.6,9.7,14.2c0,10.4-2.2,15.1-10.1,15.1h-9.3V108.7 M80.3,133.7h2.6
	c4.1,0,4.9-2.6,4.9-10.5c0-6.6-0.5-10.1-5-10.1h-2.5V133.7z"/>
</svg>
